<svg xmlns="http://www.w3.org/2000/svg" xmlns:xlink="http://www.w3.org/1999/xlink" viewBox="0 0 466.78 606"><defs><style>.cls-1{isolation:isolate;}.cls-2{fill:none;stroke:#844b74;stroke-miterlimit:10;stroke-width:4px;}.cls-3{fill:url(#linear-gradient);}.cls-4{fill:url(#linear-gradient-2);}.cls-5{fill:url(#linear-gradient-3);}.cls-6{fill:#d84c61;}.cls-7{fill:#844b74;}.cls-8{fill:url(#linear-gradient-4);}.cls-9{fill:url(#linear-gradient-5);}.cls-10{mix-blend-mode:hard-light;fill:url(#linear-gradient-6);}</style><linearGradient id="linear-gradient" x1="1238.68" y1="-684.84" x2="1705.33" y2="-684.84" gradientUnits="userSpaceOnUse"><stop offset="0.53" stop-color="#844b74"/><stop offset="0.57" stop-color="#fd9aa8"/></linearGradient><linearGradient id="linear-gradient-2" x1="1430.3" y1="-350.75" x2="1505.82" y2="-350.75" gradientUnits="userSpaceOnUse"><stop offset="0.53" stop-color="#844b74"/><stop offset="0.55" stop-color="#d84c61"/></linearGradient><linearGradient id="linear-gradient-3" x1="1302.48" y1="-684.84" x2="1625.22" y2="-684.84" gradientUnits="userSpaceOnUse"><stop offset="0.53" stop-color="#cd9eb6"/><stop offset="0.57" stop-color="#ffd3d5"/></linearGradient><linearGradient id="linear-gradient-4" x1="186.76" y1="556.25" x2="271.86" y2="556.25" gradientUnits="userSpaceOnUse"><stop offset="0.53" stop-color="#cd9eb6"/><stop offset="0.55" stop-color="#ffd3d5"/></linearGradient><linearGradient id="linear-gradient-5" x1="1400" y1="-454" x2="1400" y2="-454" xlink:href="#linear-gradient-4"/><linearGradient id="linear-gradient-6" x1="1238.8" y1="-748.01" x2="1705.45" y2="-748.01" gradientUnits="userSpaceOnUse"><stop offset="0.18" stop-color="#ffd3d5" stop-opacity="0"/><stop offset="0.74" stop-color="#fff" stop-opacity="0.3"/></linearGradient></defs><g class="cls-1"><g id="Layer_2" data-name="Layer 2"><g id="Airballoon"><line class="cls-2" x1="187.32" y1="523.5" x2="147.32" y2="446.5"/><line class="cls-2" x1="278.32" y1="525.5" x2="320.32" y2="442.5"/><line class="cls-2" x1="205.32" y1="452.5" x2="216.15" y2="523.5"/><line class="cls-2" x1="266.32" y1="452.5" x2="252.32" y2="523.5"/><path class="cls-3" d="M1472-914.19v-.31c-126.75,0-257.5,77-229.5,229.5,22.65,123.34,157,229.5,157,229.5l145,.31s134.35-106.16,157-229.5C1729.51-837.19,1598.76-914.19,1472-914.19Z" transform="translate(-1238.68 914.5)"/><path class="cls-4" d="M1424.5-393v46.46c0,21,21.27,38,47.5,38h0c26.23,0,47.5-17,47.5-38V-393Z" transform="translate(-1238.68 914.5)"/><path class="cls-5" d="M1524.83-455.19s97.88-106.16,114.38-229.5c20.4-152.5-74.86-229.5-167.2-229.5v-.31c-92.34,0-187.61,77-167.21,229.5,16.5,123.34,114.39,229.5,114.39,229.5" transform="translate(-1238.68 914.5)"/><path class="cls-6" d="M1497.17-455.19s46.64-106.16,54.5-229.5c9.72-152.5-35.67-229.5-79.66-229.5v-.31c-44,0-89.38,77-79.66,229.5,7.86,123.34,54.5,229.5,54.5,229.5" transform="translate(-1238.68 914.5)"/><path class="cls-7" d="M1368.84-481.75,1575-482l-13.08,12.88s-14.6,13.51-17.26,14.82l-145.11-.2-8.15-6.74-7-6.12-5.81-5.25L1376-475l-1.09-1-.9-.82-.76-.71Z" transform="translate(-1238.68 914.5)"/><rect class="cls-8" x="187.32" y="548" width="93" height="16.5"/><path class="cls-9" d="M1400-454" transform="translate(-1238.68 914.5)"/><path class="cls-10" d="M1472.13-912.69V-913c-126.75,0-257.5,77-229.5,229.5,6.54,35.65,22.43,69.85,41.69,100.48C1331.9-646.08,1408-692.09,1529-661c75.44,19.39,132.6-3.34,175.88-47.19C1714.94-844.1,1591.76-912.69,1472.13-912.69Z" transform="translate(-1238.68 914.5)"/><rect class="cls-6" x="186.32" y="521.5" width="94" height="3"/></g></g></g></svg>