<svg id="Layer_2" data-name="Layer 2" xmlns="http://www.w3.org/2000/svg" viewBox="0 0 331.7 208.01"><defs><style>.cls-1{fill:#fea2ba;}.cls-2{fill:#fd9aa8;}.cls-3{fill:#cc4386;}.cls-4{fill:#853247;}.cls-5{fill:#371027;}</style></defs><path class="cls-1" d="M-446,1468s-152,4-206,29-63,66-61,75,56,78,79,85,114,20,135,13,52-18,61-48S-446,1468-446,1468Z" transform="translate(713.25 -1464)"/><path class="cls-2" d="M-630,1464s137,8,180,41,22,82,13,86-81,52-123,46-129-15-135-34-13-74-3-83,69-52,69-52Z" transform="translate(713.25 -1464)"/><path class="cls-3" d="M-633,1502s113-27,187-18,64,55,64,57-51,96-99,89-176-32-176-32Z" transform="translate(713.25 -1464)"/><path class="cls-4" d="M-634,1500s166,6,179,11,19,35,19,38-45,48-64,62-145-71-145-71Z" transform="translate(713.25 -1464)"/><path class="cls-5" d="M-626,1532s77-22,187-11-60,90-60,90-132-6-133-13S-626,1532-626,1532Z" transform="translate(713.25 -1464)"/></svg>